<?xml version="1.0" encoding="UTF-8"?>
<svg version="1.1" xmlns="http://www.w3.org/2000/svg" width="160" height="160">
<path d="M0 0 C14.17926046 10.97651731 23.20431491 24.40023156 28.16796875 41.50390625 C28.71517578 43.31568359 28.71517578 43.31568359 29.2734375 45.1640625 C34.31302315 65.92844693 28.96059509 87.61644697 18.16796875 105.50390625 C15.71828929 109.06877312 13.08081391 112.31052068 10.16796875 115.50390625 C9.66265625 116.10074219 9.15734375 116.69757813 8.63671875 117.3125 C-4.02148193 131.29464514 -23.63065732 139.82310098 -42.23046875 140.7890625 C-63.79286241 141.43326547 -83.55555721 134.77748846 -99.38671875 119.9140625 C-115.47906302 104.05307781 -124.40922896 85.51763978 -125.14453125 62.75390625 C-124.6369354 39.85237567 -115.35347328 20.25132099 -99.19311523 4.18725586 C-89.23189279 -5.14630829 -77.10389331 -11.43609338 -63.83203125 -14.49609375 C-62.97351563 -14.7178125 -62.115 -14.93953125 -61.23046875 -15.16796875 C-40.49960931 -20.03807541 -16.75566346 -12.42885904 0 0 Z " fill="#2D2D2D" transform="translate(127.83203125,16.49609375)"/>
<path d="M0 0 C6.53138993 5.3170109 11.96081495 12.8214071 13.45703125 21.2734375 C14.46877067 32.35921085 13.0084786 41.90845406 6.4375 51.09765625 C-2.00356937 60.98745557 -12.16439812 67.30698122 -25.2578125 68.65625 C-36.32145111 68.99321361 -44.48790522 67.21551801 -52.98046875 59.9609375 C-59.67753171 53.49774023 -62.59783473 47.72748044 -62.83544922 38.38452148 C-62.94184781 26.50031758 -60.41833625 18.38163122 -52.54296875 9.2734375 C-51.99125 8.60441406 -51.43953125 7.93539062 -50.87109375 7.24609375 C-37.43865776 -7.70753692 -16.82832149 -11.42568064 0 0 Z " fill="#EDEDED" transform="translate(85.54296875,25.7265625)"/>
<path d="M0 0 C2.62244224 1.79093617 4.66350748 3.19366391 6.5625 5.75 C7.25429577 10.39491448 6.29770183 13.00176046 3.5625 16.75 C1.875 18.5625 1.875 18.5625 0.5625 19.75 C1.366875 20.36875 2.17125 20.9875 3 21.625 C5.55420072 23.74311767 6.40802736 24.48383079 6.80078125 27.703125 C6.98009456 33.25239994 6.37677422 36.42028332 2.5625 40.75 C-4.75419057 46.05460067 -13.7843048 45.5210768 -22.4375 44.75 C-26.48497845 43.31675692 -29.34450845 41.5361976 -31.6015625 37.84765625 C-33.08140453 34.13422088 -33.21180028 30.66087259 -32.4375 26.75 C-30.80440854 24.00480331 -28.92794748 21.75655224 -26.4375 19.75 C-25.7775 19.75 -25.1175 19.75 -24.4375 19.75 C-24.4375 19.09 -24.4375 18.43 -24.4375 17.75 C-25.0975 17.75 -25.7575 17.75 -26.4375 17.75 C-28.09688655 14.4312269 -28.33100873 11.29212388 -27.4375 7.75 C-20.5465955 -0.86363063 -10.3907801 -3.77846549 0 0 Z " fill="#3D3D3D" transform="translate(68.4375,34.25)"/>
<path d="M0 0 C15.05197953 11.16511633 24.49942198 24.8955289 29.79223633 42.70874023 C30.15961914 43.90176758 30.15961914 43.90176758 30.53442383 45.11889648 C31.7477171 49.43190475 31.97688348 53.27720851 31.79223633 57.70874023 C31.46223633 57.70874023 31.13223633 57.70874023 30.79223633 57.70874023 C30.13223633 53.41874023 29.47223633 49.12874023 28.79223633 44.70874023 C26.988931 48.31535089 26.32624529 50.79267449 25.79223633 54.70874023 C25.46223633 54.70874023 25.13223633 54.70874023 24.79223633 54.70874023 C24.71875977 53.64333008 24.71875977 53.64333008 24.64379883 52.55639648 C24.53165039 51.17774414 24.53165039 51.17774414 24.41723633 49.77124023 C24.31282227 48.39645508 24.31282227 48.39645508 24.20629883 46.99389648 C24.00133789 45.86274414 24.00133789 45.86274414 23.79223633 44.70874023 C23.13223633 44.37874023 22.47223633 44.04874023 21.79223633 43.70874023 C21.79223633 41.39874023 21.79223633 39.08874023 21.79223633 36.70874023 C21.13223633 36.70874023 20.47223633 36.70874023 19.79223633 36.70874023 C19.79223633 35.71874023 19.79223633 34.72874023 19.79223633 33.70874023 C19.13223633 33.70874023 18.47223633 33.70874023 17.79223633 33.70874023 C16.80223633 30.73874023 15.81223633 27.76874023 14.79223633 24.70874023 C14.13223633 24.70874023 13.47223633 24.70874023 12.79223633 24.70874023 C11.75788077 23.06317457 10.7646012 21.39167943 9.79223633 19.70874023 C7.55801224 16.70650161 5.92455942 14.79695563 2.79223633 12.70874023 C2.79223633 12.04874023 2.79223633 11.38874023 2.79223633 10.70874023 C1.47223633 10.37874023 0.15223633 10.04874023 -1.20776367 9.70874023 C-1.20776367 9.04874023 -1.20776367 8.38874023 -1.20776367 7.70874023 C-1.79944336 7.42643555 -2.39112305 7.14413086 -3.00073242 6.85327148 C-4.98976239 5.82179223 -6.69449933 4.68476817 -8.52026367 3.39624023 C-17.3704954 -2.17857863 -27.86786207 -4.7380178 -38.20776367 -5.29125977 C-39.32151367 -5.47688477 -40.43526367 -5.66250977 -41.58276367 -5.85375977 C-48.56475838 -6.6964143 -55.75064029 -7.47513548 -62.20776367 -4.29125977 C-62.86776367 -3.63125977 -63.52776367 -2.97125977 -64.20776367 -2.29125977 C-65.40401367 -2.37375977 -66.60026367 -2.45625977 -67.83276367 -2.54125977 C-72.59762797 -2.71484316 -74.96678827 -0.65252016 -78.44604492 2.39624023 C-80.20776367 3.70874023 -80.20776367 3.70874023 -83.20776367 3.70874023 C-84.68728789 4.30442882 -86.14461961 4.95661825 -87.58276367 5.64624023 C-90.78921829 7.12654473 -93.67436762 8.25281816 -97.20776367 8.70874023 C-96.27722579 3.69239232 -93.21452568 1.54660287 -89.20776367 -1.29125977 C-61.52678679 -19.92078761 -27.40538871 -19.42655318 0 0 Z " fill="#C9C9C9" transform="translate(126.207763671875,15.291259765625)"/>
<path d="M0 0 C0 0.66 0 1.32 0 2 C0.66 2.20625 1.32 2.4125 2 2.625 C10.50442059 6.52285944 21.31590619 14.86654745 24.8125 23.6875 C25.4003125 25.3271875 25.4003125 25.3271875 26 27 C26.86125164 28.29451934 27.75870484 29.56555402 28.6875 30.8125 C31 34 31 34 31 36 C31.99 35.67 32.98 35.34 34 35 C37.7961905 37.53079367 38.14609045 39.99349656 39.1875 44.1875 C39.36474609 44.83525391 39.54199219 45.48300781 39.72460938 46.15039062 C40.85403912 50.51548395 41.16909429 54.50442422 41 59 C40.67 59 40.34 59 40 59 C39.34 54.71 38.68 50.42 38 46 C36.19669467 49.60661066 35.53400897 52.08393425 35 56 C34.67 56 34.34 56 34 56 C33.95101562 55.28972656 33.90203125 54.57945313 33.8515625 53.84765625 C33.73941406 52.46900391 33.73941406 52.46900391 33.625 51.0625 C33.52058594 49.68771484 33.52058594 49.68771484 33.4140625 48.28515625 C33.20910156 47.15400391 33.20910156 47.15400391 33 46 C32.34 45.67 31.68 45.34 31 45 C31 42.69 31 40.38 31 38 C30.34 38 29.68 38 29 38 C29 37.01 29 36.02 29 35 C28.34 35 27.68 35 27 35 C26.01 32.03 25.02 29.06 24 26 C23.34 26 22.68 26 22 26 C20.96564444 24.35443434 19.97236487 22.6829392 19 21 C16.76577591 17.99776138 15.13232309 16.08821539 12 14 C12 13.34 12 12.68 12 12 C10.68 11.67 9.36 11.34 8 11 C8 10.34 8 9.68 8 9 C7.40832031 8.71769531 6.81664063 8.43539063 6.20703125 8.14453125 C4.21800128 7.11305199 2.51326434 5.97602793 0.6875 4.6875 C-8.16273173 -0.88731887 -18.6600984 -3.44675803 -29 -4 C-30.11375 -4.185625 -31.2275 -4.37125 -32.375 -4.5625 C-39.35699471 -5.40515453 -46.54287661 -6.18387572 -53 -3 C-53.66 -2.34 -54.32 -1.68 -55 -1 C-56.19625 -1.0825 -57.3925 -1.165 -58.625 -1.25 C-63.3898643 -1.4235834 -65.7590246 0.63873961 -69.23828125 3.6875 C-71 5 -71 5 -74 5 C-75.47952422 5.59568859 -76.93685594 6.24787802 -78.375 6.9375 C-81.58145462 8.4178045 -84.46660395 9.54407793 -88 10 C-87.61704951 7.77888714 -87.13079812 6.19619717 -85.875 4.3125 C-84 3 -84 3 -80.875 2.5625 C-77.56441395 2.08193106 -75.77902489 1.55917113 -72.86328125 0.16796875 C-48.57620637 -10.89927717 -24.27849469 -11.06749398 0 0 Z " fill="#8D8D8D" transform="translate(117,14)"/>
<path d="M0 0 C-0.66 0.66 -1.32 1.32 -2 2 C-4.14753939 1.81261666 -6.29511693 1.61061803 -8.43164062 1.32373047 C-26.98377363 -1.01468478 -44.13915224 2.21092502 -60.98120117 10.14160156 C-63.01452612 11.00617654 -64.80780911 11.69596725 -67 12 C-67.66 11.34 -68.32 10.68 -69 10 C-66.27428673 8.36915458 -63.54384748 6.74638861 -60.8125 5.125 C-60.04357422 4.66480469 -59.27464844 4.20460938 -58.48242188 3.73046875 C-42.03602767 -6.01031408 -17.99080721 -6.00885808 0 0 Z " fill="#B5B5B5" transform="translate(103,6)"/>
<path d="M0 0 C3.35386879 0.64894025 5.01308758 1.78607812 7.16015625 4.41796875 C7.72265625 7.41796875 7.72265625 7.41796875 7.16015625 10.41796875 C4.83393243 13.28697812 2.86809698 15.18716595 -0.86328125 15.69140625 C-7.19898723 15.96504139 -7.19898723 15.96504139 -10.40234375 13.23046875 C-11.98142013 10.14097149 -12.60158269 8.80347514 -11.83984375 5.41796875 C-8.51677197 0.59415488 -5.59221646 -0.34542906 0 0 Z " fill="#F3F3F3" transform="translate(56.83984375,56.58203125)"/>
<path d="M0 0 C0.99 0.66 1.98 1.32 3 2 C3.5625 4.875 3.5625 4.875 3 8 C-0.19644681 10.96256046 -2.29521908 11.91494023 -6.625 12.4375 C-10.15035683 11.9805093 -11.68466118 11.68579303 -14 9 C-14.5625 6.5625 -14.5625 6.5625 -14 4 C-10.14383096 -0.60252434 -5.6483939 -0.90966643 0 0 Z " fill="#F2F2F2" transform="translate(62,39)"/>
<path d="M0 0 C-0.598125 0.268125 -1.19625 0.53625 -1.8125 0.8125 C-4.04736499 1.83420657 -4.04736499 1.83420657 -5.25 3.625 C-7 5 -7 5 -10.6875 4.8125 C-15.43665908 4.57591827 -17.77244817 6.65050225 -21.23828125 9.6875 C-23 11 -23 11 -26 11 C-27.47952422 11.59568859 -28.93685594 12.24787802 -30.375 12.9375 C-33.58145462 14.4178045 -36.46660395 15.54407793 -40 16 C-39.61704951 13.77888714 -39.13079812 12.19619717 -37.875 10.3125 C-36 9 -36 9 -32.875 8.5625 C-29.57698312 8.08375561 -27.78315296 7.56673431 -24.875 6.1875 C-17.10363589 2.55465342 -8.68699576 -0.80809263 0 0 Z " fill="#6C6C6C" transform="translate(69,8)"/>
<path d="M0 0 C0.495 0.99 0.495 0.99 1 2 C3.30965848 3.05352843 5.6429774 4.05719096 8 5 C4.2392326 6.25358913 3.08969138 5.5058807 -0.5625 4.125 C-6.1294166 2.1685112 -11.15078762 1.38858404 -17 1 C-18.175625 0.814375 -19.35125 0.62875 -20.5625 0.4375 C-24.023623 -0.00300656 -27.29811402 -0.01649243 -30.77734375 0.03125 C-33.92229154 -0.01296719 -36.90206453 -0.47269184 -40 -1 C-40 -1.33 -40 -1.66 -40 -2 C-27.74287421 -4.71835812 -11.7884648 -4.63042401 0 0 Z " fill="#787878" transform="translate(105,9)"/>
<path d="M0 0 C4 1.33333333 8 2.66666667 12 4 C12 4.66 12 5.32 12 6 C12.66 6.20625 13.32 6.4125 14 6.625 C22.432443 10.48986971 28.65041436 17.41620833 35 24 C34.67 24.66 34.34 25.32 34 26 C33.52949219 25.59007813 33.05898437 25.18015625 32.57421875 24.7578125 C31.95160156 24.21898438 31.32898438 23.68015625 30.6875 23.125 C30.07261719 22.59132813 29.45773438 22.05765625 28.82421875 21.5078125 C26.86501788 19.8359553 26.86501788 19.8359553 24 18 C24 17.34 24 16.68 24 16 C22.68 15.67 21.36 15.34 20 15 C20 14.34 20 13.68 20 13 C19.42636719 12.7215625 18.85273437 12.443125 18.26171875 12.15625 C16.0456544 11.02333973 13.93178149 9.80417322 11.8125 8.5 C11.11769531 8.0771875 10.42289063 7.654375 9.70703125 7.21875 C8 6 8 6 7 4 C4.69034152 2.94647157 2.3570226 1.94280904 0 1 C0 0.67 0 0.34 0 0 Z " fill="#929292" transform="translate(105,10)"/>
<path d="M0 0 C0.75547119 0.17354004 1.51094238 0.34708008 2.28930664 0.52587891 C4.14944454 0.98797991 5.98453598 1.5486339 7.8125 2.125 C8.3075 3.115 8.3075 3.115 8.8125 4.125 C7.9860498 3.9820752 7.15959961 3.83915039 6.30810547 3.69189453 C-2.89292855 2.22357621 -11.74027506 1.88107073 -21.0625 2 C-22.44400378 2.01006974 -23.82551484 2.0191884 -25.20703125 2.02734375 C-28.53404732 2.0506096 -31.86067285 2.08329436 -35.1875 2.125 C-24.12361573 -3.57203151 -11.78347434 -2.71385948 0 0 Z " fill="#CBCBCB" transform="translate(95.1875,1.875)"/>
<path d="M0 0 C-1.05127075 0.34780518 -1.05127075 0.34780518 -2.1237793 0.70263672 C-5.3122153 1.75850109 -8.49986286 2.81672644 -11.6875 3.875 C-12.79029297 4.23980469 -13.89308594 4.60460937 -15.02929688 4.98046875 C-16.09599609 5.33496094 -17.16269531 5.68945312 -18.26171875 6.0546875 C-19.73064575 6.54171143 -19.73064575 6.54171143 -21.22924805 7.03857422 C-23.85553069 7.94987046 -26.42847176 8.9451193 -29 10 C-29.66 9.34 -30.32 8.68 -31 8 C-18.88615226 0.2673272 -18.88615226 0.2673272 -11 0 C-9.7625 -0.20625 -8.525 -0.4125 -7.25 -0.625 C-4.27986781 -0.96770756 -2.77912198 -0.80957032 0 0 Z " fill="#999999" transform="translate(65,8)"/>
<path d="M0 0 C4.13379115 0.88581239 7.11886193 1.65903923 9.51953125 5.3125 C9.94621094 6.199375 10.37289062 7.08625 10.8125 8 C11.25207031 8.886875 11.69164062 9.77375 12.14453125 10.6875 C12.56798828 11.8321875 12.56798828 11.8321875 13 13 C12.67 13.66 12.34 14.32 12 15 C10.265625 14.87109375 10.265625 14.87109375 8 14 C5.859375 11.34765625 5.859375 11.34765625 3.75 8.0625 C3.04359375 6.98097656 2.3371875 5.89945313 1.609375 4.78515625 C0 2 0 2 0 0 Z " fill="#BCBCBC" transform="translate(140,36)"/>
<path d="M0 0 C-1.32 0.33 -2.64 0.66 -4 1 C-4 1.99 -4 2.98 -4 4 C-6.41474617 4.53160457 -8.83108107 5.05054766 -11.25 5.5625 C-11.93191406 5.71396484 -12.61382812 5.86542969 -13.31640625 6.02148438 C-16.81769038 6.75233495 -19.60298173 7.32203546 -23 6 C-16.21886511 0.47463083 -8.52700831 -0.27506478 0 0 Z " fill="#BEBEBE" transform="translate(70,3)"/>
<path d="M0 0 C0.99 0.33 1.98 0.66 3 1 C-0.23554039 3.77332034 -3.04571826 5.47912241 -7 7 C-7.70125 7.556875 -8.4025 8.11375 -9.125 8.6875 C-9.74375 9.120625 -10.3625 9.55375 -11 10 C-11.99 9.67 -12.98 9.34 -14 9 C-12.35 6.69 -10.7 4.38 -9 2 C-8.67 2.66 -8.34 3.32 -8 4 C-5.0280615 2.87548273 -2.66559313 1.77706209 0 0 Z " fill="#4A4A4A" transform="translate(37,20)"/>
<path d="M0 0 C0.79921875 0.00902344 1.5984375 0.01804688 2.421875 0.02734375 C3.02515625 0.03894531 3.6284375 0.05054688 4.25 0.0625 C4.25 0.7225 4.25 1.3825 4.25 2.0625 C7.55 2.0625 10.85 2.0625 14.25 2.0625 C14.25 2.3925 14.25 2.7225 14.25 3.0625 C6.66 3.3925 -0.93 3.7225 -8.75 4.0625 C-8.75 3.0725 -8.75 2.0825 -8.75 1.0625 C-5.75519083 0.1901588 -3.11424089 -0.04579766 0 0 Z " fill="#A3A3A3" transform="translate(74.75,2.9375)"/>
<path d="M0 0 C1.6045556 0.14148989 3.20863767 0.28835686 4.8125 0.4375 C5.70582031 0.51871094 6.59914063 0.59992187 7.51953125 0.68359375 C10 1 10 1 13 2 C13.33 2.66 13.66 3.32 14 4 C16.30965848 5.05352843 18.6429774 6.05719096 21 7 C15.07912491 8.97362503 7.68485668 4.96091172 2.25 2.25 C1.5075 1.8375 0.765 1.425 0 1 C0 0.67 0 0.34 0 0 Z " fill="#7F7F7F" transform="translate(92,7)"/>
<path d="M0 0 C6.22798655 4.35959058 10.39508169 10.34828525 14 17 C14 18.32 14 19.64 14 21 C13.34 21 12.68 21 12 21 C12 20.01 12 19.02 12 18 C11.34 18 10.68 18 10 18 C9.01 15.03 8.02 12.06 7 9 C6.34 9 5.68 9 5 9 C3.08152136 6.12228205 1.49920512 3.11373372 0 0 Z " fill="#7D7D7D" transform="translate(134,31)"/>
<path d="M0 0 C4 1.33333333 8 2.66666667 12 4 C12 4.66 12 5.32 12 6 C14.475 6.99 14.475 6.99 17 8 C15.3125 8.6875 15.3125 8.6875 13 9 C8.36923077 6.73846154 8.36923077 6.73846154 7 4 C4.69034152 2.94647157 2.3570226 1.94280904 0 1 C0 0.67 0 0.34 0 0 Z " fill="#9A9A9A" transform="translate(105,10)"/>
<path d="M0 0 C3.3 0.99 6.6 1.98 10 3 C10 3.66 10 4.32 10 5 C10.66 5 11.32 5 12 5 C12.33 5.99 12.66 6.98 13 8 C7.73691968 6.58795406 4.2437012 4.31008693 0 1 C0 0.67 0 0.34 0 0 Z " fill="#4E4E4E" transform="translate(35,141)"/>
<path d="M0 0 C-8.261959 4.40774487 -8.261959 4.40774487 -13 5 C-12.6875 3.0625 -12.6875 3.0625 -12 1 C-3.6 -1.8 -3.6 -1.8 0 0 Z " fill="#616161" transform="translate(42,19)"/>
<path d="M0 0 C0.66 0.33 1.32 0.66 2 1 C0.68 1.33 -0.64 1.66 -2 2 C-2 2.66 -2 3.32 -2 4 C-4.97 4.66 -7.94 5.32 -11 6 C-11 5.01 -11 4.02 -11 3 C-9.9275 2.87625 -8.855 2.7525 -7.75 2.625 C-4.56296928 2.09382821 -2.77573258 1.43926875 0 0 Z " fill="#777777" transform="translate(44,14)"/>
<path d="M0 0 C-1.32 0.33 -2.64 0.66 -4 1 C-4 1.99 -4 2.98 -4 4 C-6.64 4.33 -9.28 4.66 -12 5 C-9.56521739 1.22608696 -9.56521739 1.22608696 -7.125 0.25 C-4.73068929 -0.03168361 -2.40866079 -0.06690724 0 0 Z " fill="#B6B6B6" transform="translate(70,3)"/>
<path d="M0 0 C2.97 0.495 2.97 0.495 6 1 C6.33 2.65 6.66 4.3 7 6 C4.625 5.8125 4.625 5.8125 2 5 C0.6875 2.4375 0.6875 2.4375 0 0 Z " fill="#B2B2B2" transform="translate(146,45)"/>
<path d="M0 0 C-1.65 1.32 -3.3 2.64 -5 4 C-5.66 2.68 -6.32 1.36 -7 0 C-3.86650268 -1.04449911 -3.01031744 -0.93423645 0 0 Z " fill="#5C5C5C" transform="translate(49,16)"/>
<path d="M0 0 C1.60495567 0.11442461 3.20898119 0.24194694 4.8125 0.375 C5.70582031 0.44460937 6.59914063 0.51421875 7.51953125 0.5859375 C10 1 10 1 13 3 C11.58430936 3.08167446 10.16723195 3.13949698 8.75 3.1875 C7.96109375 3.22230469 7.1721875 3.25710938 6.359375 3.29296875 C3.48287032 2.93578688 2.15423231 1.88248282 0 0 Z " fill="#8E8E8E" transform="translate(92,7)"/>
<path d="M0 0 C2.3431213 0.25561323 4.67843403 0.59270772 7 1 C7.33 1.66 7.66 2.32 8 3 C5.21176345 4.0326802 4.1322726 4.04509293 1.25 3.0625 C0.5075 2.711875 -0.235 2.36125 -1 2 C-0.67 1.34 -0.34 0.68 0 0 Z " fill="#C4C4C4" transform="translate(103,7)"/>
<path d="M0 0 C1.08667969 0.29197266 1.08667969 0.29197266 2.1953125 0.58984375 C2.74960938 0.74582031 3.30390625 0.90179688 3.875 1.0625 C3.215 1.7225 2.555 2.3825 1.875 3.0625 C-1.56665321 2.70950993 -3.19372538 2.01668308 -6.125 0.0625 C-3.57797384 -1.21101308 -2.6967055 -0.73941925 0 0 Z " fill="#BEBEBE" transform="translate(99.125,4.9375)"/>
<path d="M0 0 C0.66 0.33 1.32 0.66 2 1 C-1.96 4.465 -1.96 4.465 -6 8 C-6 5 -6 5 -4.6875 3.61328125 C-3.125 2.40885417 -1.5625 1.20442708 0 0 Z " fill="#838383" transform="translate(136,136)"/>
<path d="M0 0 C1.875 0.3125 1.875 0.3125 4 1 C4.66 1.99 5.32 2.98 6 4 C1.125 2.25 1.125 2.25 0 0 Z " fill="#FEFEFE" transform="translate(41,156)"/>
<path d="M0 0 C1.5 1.375 1.5 1.375 3 3 C3 3.66 3 4.32 3 5 C2.34 5 1.68 5 1 5 C0.34 3.68 -0.32 2.36 -1 1 C-0.67 0.67 -0.34 0.34 0 0 Z " fill="#E0E0E0" transform="translate(13,120)"/>
<path d="M0 0 C0.66 0.33 1.32 0.66 2 1 C1.01 1.99 0.02 2.98 -1 4 C-1.66 3.67 -2.32 3.34 -3 3 C-2.01 2.01 -1.02 1.02 0 0 Z " fill="#828282" transform="translate(27,20)"/>
<path d="M0 0 C1.0625 1.875 1.0625 1.875 2 4 C1.67 4.66 1.34 5.32 1 6 C0 5 0 5 -0.0625 2.4375 C-0.041875 1.633125 -0.02125 0.82875 0 0 Z " fill="#9E9E9E" transform="translate(4,98)"/>
<path d="M0 0 C0.99 0.33 1.98 0.66 3 1 C2.67 1.66 2.34 2.32 2 3 C1.34 3 0.68 3 0 3 C0 2.01 0 1.02 0 0 Z " fill="#3B3B3B" transform="translate(8,43)"/>
<path d="M0 0 C0.66 0.33 1.32 0.66 2 1 C1.67 1.66 1.34 2.32 1 3 C0.34 2.67 -0.32 2.34 -1 2 C-0.67 1.34 -0.34 0.68 0 0 Z " fill="#4C4C4C" transform="translate(148,126)"/>
<path d="M0 0 C0.66 0.33 1.32 0.66 2 1 C1.67 1.66 1.34 2.32 1 3 C0.34 2.67 -0.32 2.34 -1 2 C-0.67 1.34 -0.34 0.68 0 0 Z " fill="#424242" transform="translate(150,122)"/>
<path d="M0 0 C1 4 1 4 1 4 Z " fill="#222222" transform="translate(2,67)"/>
<path d="M0 0 C0 3 0 3 0 3 Z " fill="#606060" transform="translate(21,26)"/>
<path d="M0 0 C0.66 0.66 1.32 1.32 2 2 C1.34 2 0.68 2 0 2 C0 1.34 0 0.68 0 0 Z " fill="#C0C0C0" transform="translate(7,109)"/>
<path d="" fill="#4D4D4D" transform="translate(0,0)"/>
<path d="" fill="#2F2F2F" transform="translate(0,0)"/>
<path d="M0 0 C0.99 0.495 0.99 0.495 2 1 C1.01 1.495 1.01 1.495 0 2 C0 1.34 0 0.68 0 0 Z " fill="#757575" transform="translate(22,24)"/>
<path d="" fill="#6B6B6B" transform="translate(0,0)"/>
<path d="" fill="#2C2C2C" transform="translate(0,0)"/>
<path d="" fill="#333333" transform="translate(0,0)"/>
<path d="" fill="#3C3C3C" transform="translate(0,0)"/>
<path d="" fill="#282828" transform="translate(0,0)"/>
<path d="" fill="#555555" transform="translate(0,0)"/>
</svg>
